<?xml version="1.0" encoding="UTF-8" standalone="no"?>
<svg
   height="48px"
   viewBox="0 0 24 24"
   width="48px"
   fill="#FFFFFF"
   version="1.1"
   id="svg3254"
   sodipodi:docname="help.svg"
   inkscape:version="1.1.1 (3bf5ae0d25, 2021-09-20)"
   xmlns:inkscape="http://www.inkscape.org/namespaces/inkscape"
   xmlns:sodipodi="http://sodipodi.sourceforge.net/DTD/sodipodi-0.dtd"
   xmlns="http://www.w3.org/2000/svg"
   xmlns:svg="http://www.w3.org/2000/svg">
  <defs
     id="defs3258" />
  <sodipodi:namedview
     id="namedview3256"
     pagecolor="#ffffff"
     bordercolor="#666666"
     borderopacity="1.0"
     inkscape:pageshadow="2"
     inkscape:pageopacity="0.0"
     inkscape:pagecheckerboard="true"
     showgrid="false"
     inkscape:zoom="12.256518"
     inkscape:cx="27.046834"
     inkscape:cy="28.270673"
     inkscape:window-width="1920"
     inkscape:window-height="1017"
     inkscape:window-x="1912"
     inkscape:window-y="-8"
     inkscape:window-maximized="1"
     inkscape:current-layer="svg3254" />
  <path
     d="M0 0h24v24H0V0z"
     fill="none"
     id="path3250" />
  <path
     id="path3252"
     style="stroke-width:2"
     d="M 0 0 L 0 48 L 48 48 L 48 0 L 0 0 z M 24 4 C 35.04 4 44 12.96 44 24 C 44 35.04 35.04 44 24 44 C 12.96 44 4 35.04 4 24 C 4 12.96 12.96 4 24 4 z M 24 8 C 15.18 8 8 15.18 8 24 C 8 32.82 15.18 40 24 40 C 32.82 40 40 32.82 40 24 C 40 15.18 32.82 8 24 8 z M 24 12 C 28.42 12 32 15.58 32 20 C 32 25 26 25.5 26 30 L 22 30 C 22 23.5 28 24 28 20 C 28 17.8 26.2 16 24 16 C 21.8 16 20 17.8 20 20 L 16 20 C 16 15.58 19.58 12 24 12 z M 22 32 L 26 32 L 26 36 L 22 36 L 22 32 z "
     transform="scale(0.5)" />
</svg>
