<?xml version="1.0" encoding="UTF-8" standalone="no"?>
<svg
   height="48px"
   viewBox="0 0 24 24"
   width="48px"
   fill="#FFFFFF"
   version="1.1"
   id="svg23"
   sodipodi:docname="info.svg"
   inkscape:version="1.1.1 (3bf5ae0d25, 2021-09-20)"
   xmlns:inkscape="http://www.inkscape.org/namespaces/inkscape"
   xmlns:sodipodi="http://sodipodi.sourceforge.net/DTD/sodipodi-0.dtd"
   xmlns="http://www.w3.org/2000/svg"
   xmlns:svg="http://www.w3.org/2000/svg">
  <defs
     id="defs27" />
  <sodipodi:namedview
     id="namedview25"
     pagecolor="#ffffff"
     bordercolor="#666666"
     borderopacity="1.0"
     inkscape:pageshadow="2"
     inkscape:pageopacity="0.0"
     inkscape:pagecheckerboard="true"
     showgrid="false"
     inkscape:zoom="10.354167"
     inkscape:cx="31.050302"
     inkscape:cy="26.124748"
     inkscape:window-width="1920"
     inkscape:window-height="1017"
     inkscape:window-x="1912"
     inkscape:window-y="-8"
     inkscape:window-maximized="1"
     inkscape:current-layer="svg23" />
  <path
     d="M0 0h24v24H0V0z"
     fill="none"
     id="path19" />
  <path
     id="path21"
     style="stroke-width:2"
     d="M 0 0 L 0 48 L 48 48 L 48 0 L 0 0 z M 24 4 C 35.04 4 44 12.96 44 24 C 44 35.04 35.04 44 24 44 C 12.96 44 4 35.04 4 24 C 4 12.96 12.96 4 24 4 z M 24 8 C 15.18 8 8 15.18 8 24 C 8 32.82 15.18 40 24 40 C 32.82 40 40 32.82 40 24 C 40 15.18 32.82 8 24 8 z M 22 14 L 26 14 L 26 18 L 22 18 L 22 14 z M 22 22 L 26 22 L 26 34 L 22 34 L 22 22 z "
     transform="scale(0.5)" />
</svg>
